/vscmnt/brussel_pixiu_data/_data_brussel/112/vsc11236/PredSimResults/SUBJ06opt3D/trackIG/worker_13.mot
version=1
nRows=8
nColumns=50
inDegrees=yes
endheader
                time	         pelvis_tilt	         pelvis_list	     pelvis_rotation	           pelvis_tx	           pelvis_ty	           pelvis_tz	       hip_flexion_r	     hip_adduction_r	      hip_rotation_r	        knee_angle_r	       ankle_angle_r	         mtp_angle_r	       hip_flexion_l	     hip_adduction_l	      hip_rotation_l	        knee_angle_l	       ankle_angle_l	         mtp_angle_l	    lumbar_extension	      lumbar_bending	     lumbar_rotation	 ercspn_r/activation	 intobl_r/activation	 extobl_r/activation	    abd_r/activation	    add_r/activation	hamstrings_r/activation	bifemsh_r/activation	glut_max_r/activation	iliopsoas_r/activation	rect_fem_r/activation	  vasti_r/activation	gastroc_r/activation	 soleus_r/activation	tib_ant_r/activation	 ercspn_l/activation	 intobl_l/activation	 extobl_l/activation	    abd_l/activation	    add_l/activation	hamstrings_l/activation	bifemsh_l/activation	glut_max_l/activation	iliopsoas_l/activation	rect_fem_l/activation	  vasti_l/activation	gastroc_l/activation	 soleus_l/activation	tib_ant_l/activation	
          0.00000000	        -12.91155424	         -0.92523871	          8.96566709	          0.00000000	          0.89086125	         -0.01041295	         45.41544946	         -4.50006825	         -4.75628870	        -10.21711035	         -1.26353715	          0.24062777	         -2.13346800	         -1.43380640	          1.85029638	        -24.05085780	          7.28649590	         46.39711780	         -6.60652586	         -1.47426071	         -2.21795972	          0.24234540	          0.09385282	          0.00999999	          0.00999999	          0.14221429	          0.00999999	          0.28784941	          0.02437001	          0.14613836	          0.03660186	          0.00999999	          0.05135121	          0.01676527	          0.49426549	          0.22738815	          0.00999999	          0.00999999	          0.05585250	          0.04712297	          0.05182413	          0.61176870	          0.05583705	          0.03164471	          0.04803792	          0.07296675	          0.23799218	          0.36117681	          0.01796072	
          0.01127790	        -12.75599216	         -0.96146584	          9.29872562	          0.02677772	          0.89060705	         -0.00962543	         45.31440593	         -4.58729736	         -5.83793081	        -13.00290400	         -1.75636166	          0.25562970	         -3.85577422	         -1.88042904	          1.37027224	        -23.51207324	          4.02210097	         48.38343691	         -6.12470455	         -1.26263803	         -2.55147821	          0.20400044	          0.07900301	          0.00999999	          0.00999999	          0.13770471	          0.04443640	          0.24230460	          0.12556042	          0.12301571	          0.03081055	          0.00999999	          0.04322620	          0.01411260	          0.55371645	          0.25293059	          0.00999999	          0.00999999	          0.04701527	          0.03966696	          0.11457569	          0.74705491	          0.04700227	          0.07738792	          0.04043715	          0.06142163	          0.20033601	          0.30402982	          0.01511889	
          0.02255581	        -12.58037037	         -1.06521872	          9.60773170	          0.05373664	          0.89011999	         -0.00877689	         45.13594212	         -4.66590205	         -6.59960848	        -16.09409110	         -1.98813782	          0.18300418	         -5.29106757	         -2.40897653	          0.78790926	        -23.54421298	          1.01396689	         49.41429396	         -5.62182667	         -0.97874094	         -2.86486804	          0.17172259	          0.06650281	          0.00999999	          0.09040284	          0.14839617	          0.06419695	          0.20396610	          0.17244107	          0.10355162	          0.02593557	          0.00999999	          0.03638676	          0.01187964	          0.62939248	          0.21291079	          0.00999999	          0.00999999	          0.03957631	          0.03339068	          0.13273514	          0.62885259	          0.03956536	          0.36801076	          0.03403901	          0.05170323	          0.17134246	          0.25592488	          0.01272671	
          0.03383371	        -12.39254189	         -1.22761405	          9.89811158	          0.08042933	          0.88958607	         -0.00777659	         45.05291203	         -4.65265847	         -7.10746195	        -19.36613311	         -2.03553621	          0.13791562	         -6.24893538	         -3.01844389	          0.13890141	        -24.43170351	         -1.68864894	         49.38195293	         -5.15371146	         -0.63933684	         -3.16544232	          0.15819087	          0.05598044	          0.00999999	          0.16474769	          0.22610126	          0.07761079	          0.17169368	          0.38979811	          0.08716723	          0.02183193	          0.00999999	          0.03062949	          0.00999999	          0.63557728	          0.26519501	          0.00999999	          0.00999999	          0.03331437	          0.02810746	          0.11173320	          0.52935276	          0.03330516	          0.61596705	          0.02865320	          0.04352251	          0.14423190	          0.21543132	          0.01071304	
          0.04511162	        -12.19120152	         -1.46144279	         10.18227383	          0.10658381	          0.88922108	         -0.00657095	         45.18419808	         -4.48972694	         -7.23169949	        -23.02799238	         -1.55736245	          0.05919813	         -6.60499782	         -3.73960461	         -0.53773082	        -26.29489430	         -4.28452114	         48.52829372	         -4.75050264	         -0.23764664	         -3.46710781	          0.18905605	          0.04712297	          0.00999999	          0.27417954	          0.34262626	          0.06793635	          0.14452755	          0.56364758	          0.07337524	          0.01837758	          0.00999999	          0.02578315	          0.05058417	          0.53501344	          0.36592758	          0.00999999	          0.00999999	          0.02804322	          0.02366017	          0.09405428	          0.44559623	          0.02803547	          0.76847051	          0.02411957	          0.03663619	          0.12141089	          0.18134482	          0.00999999	
          0.05638952	        -11.97320013	         -1.75469932	         10.46110984	          0.13219811	          0.88918274	         -0.00516053	         45.45830569	         -4.17471501	         -7.03795118	        -27.04308653	         -0.07094062	          0.14303912	         -6.34720286	         -4.57973560	         -1.24460524	        -29.07720355	         -6.97716247	         46.92892690	         -4.40246193	          0.20530697	         -3.77429123	          0.22755899	          0.03966696	          0.00999999	          0.37454679	          0.41548511	          0.05718716	          0.12165977	          0.54203617	          0.06176549	          0.01546980	          0.05265207	          0.02170363	          0.13783057	          0.45036126	          0.44397713	          0.00999999	          0.00999999	          0.02360610	          0.01991656	          0.07917260	          0.37509203	          0.02359957	          0.74387016	          0.02030326	          0.03083945	          0.10220072	          0.15265165	          0.00999999	
          0.06766743	        -11.74305357	         -2.04585257	         10.70657285	          0.15740953	          0.88958551	         -0.00359990	         45.60903403	         -3.78811896	         -6.81322163	        -30.90726938	          2.10389561	          0.75644359	         -5.57131668	         -5.48894348	         -2.01015427	        -32.53382893	         -9.94384750	         44.58381541	         -4.08377295	          0.62040378	         -4.06246534	          0.24998555	          0.03339068	          0.00999999	          0.44127621	          0.39966422	          0.05470316	          0.10241022	          0.45627282	          0.05199268	          0.01302210	          0.15265392	          0.01826958	          0.18222196	          0.37910311	          0.46555484	          0.00999999	          0.00999999	          0.01987104	          0.01676527	          0.06664556	          0.31574331	          0.01986554	          0.62617175	          0.01709079	          0.02595990	          0.08603007	          0.12849843	          0.00999999	
          0.07894533	        -11.51357640	         -2.29378976	         10.91558225	          0.18228191	          0.89054605	         -0.00197030	         45.34247263	         -3.36617554	         -6.66864017	        -33.95277479	          4.03961600	          1.94788973	         -4.39551192	         -6.43850929	         -2.81873025	        -36.40164701	        -12.93116125	         40.91507794	         -3.77286826	          0.96453034	         -4.32772214	          0.21043173	          0.02810746	          0.00999999	          0.50935560	          0.33642758	          0.06066905	          0.08620642	          0.38407932	          0.04376617	          0.01096169	          0.37524367	          0.01537889	          0.24431435	          0.31911975	          0.49705717	          0.00999999	          0.00999999	          0.04712297	          0.01411260	          0.05610061	          0.26578501	          0.01672233	          0.52709609	          0.01438661	          0.02185241	          0.07241802	          0.10816684	          0.19467451	
